<?xml version="1.0" standalone="no"?>
<!DOCTYPE svg PUBLIC "-//W3C//DTD SVG 20010904//EN"
 "http://www.w3.org/TR/2001/REC-SVG-20010904/DTD/svg10.dtd">
<svg version="1.0" xmlns="http://www.w3.org/2000/svg"
 width="303.000000pt" height="303.000000pt" viewBox="0 0 303.000000 303.000000"
 preserveAspectRatio="xMidYMid meet">
<metadata>
Created by potrace 1.14, written by Peter Selinger 2001-2017
</metadata>
<g transform="translate(0.000000,303.000000) scale(0.100000,-0.100000)"
fill="#000000" stroke="none">
<path d="M1450 2990 c-66 -18 -128 -71 -166 -141 -27 -50 -26 -172 3 -220 31
-54 64 -88 106 -112 27 -15 37 -27 35 -42 -3 -19 -10 -20 -182 -21 -202 -2
-209 -4 -203 -75 5 -64 7 -64 194 -64 92 1 171 -3 174 -8 6 -8 -12 -70 -30
-105 -5 -9 -32 -65 -60 -123 -28 -59 -62 -123 -76 -143 -14 -20 -25 -41 -25
-47 0 -5 -47 -80 -104 -167 -57 -86 -113 -175 -123 -197 -18 -34 -46 -110 -48
-125 0 -3 -3 -10 -7 -15 -8 -13 -8 -197 0 -210 4 -5 8 -21 10 -35 9 -68 104
-220 169 -273 13 -10 29 -24 36 -30 12 -12 24 -19 93 -58 18 -10 58 -25 88
-34 31 -9 58 -20 61 -25 10 -16 -47 -50 -85 -50 -63 0 -224 46 -317 91 -126
60 -245 140 -231 154 3 3 30 18 61 34 l56 29 -97 48 c-106 54 -193 130 -275
244 -25 34 -47 58 -50 53 -26 -45 -41 -249 -25 -333 5 -25 11 -56 14 -70 7
-39 72 -170 84 -170 5 0 10 7 10 15 0 8 3 15 8 15 4 0 20 12 35 26 l29 26 41
-38 c23 -22 44 -42 47 -45 23 -25 169 -133 230 -169 41 -24 77 -47 80 -51 6
-8 209 -112 255 -130 17 -7 33 -12 38 -11 4 1 7 -3 7 -9 0 -5 4 -8 9 -4 5 3
12 1 16 -5 3 -5 15 -10 26 -10 10 0 19 -5 19 -12 0 -6 2 -9 5 -6 3 3 29 0 58
-7 66 -15 123 -11 202 14 87 28 298 124 366 166 31 19 62 35 67 35 6 0 12 3
14 8 2 4 41 34 87 66 87 61 110 79 195 158 28 26 54 48 57 48 4 0 20 -15 36
-33 16 -19 35 -37 41 -41 21 -13 87 145 98 235 12 104 -1 297 -23 332 -3 4
-22 -15 -42 -42 -97 -130 -210 -232 -287 -261 -52 -19 -84 -35 -84 -40 0 -6
35 -29 79 -50 l33 -17 -28 -27 c-26 -24 -168 -116 -179 -116 -3 0 -29 -11 -58
-26 -72 -35 -228 -73 -287 -70 -38 1 -53 7 -68 26 l-19 24 76 25 c42 14 78 29
79 33 2 4 8 8 12 8 36 0 176 126 207 185 8 17 21 37 28 45 8 8 14 18 15 22 0
4 6 22 13 40 6 18 10 36 9 40 -1 5 2 8 8 8 6 0 9 3 8 7 -1 5 2 35 7 68 5 33 8
82 6 109 -2 50 -35 163 -52 181 -5 5 -9 15 -9 22 0 8 -8 26 -19 41 -76 111
-141 212 -141 218 0 4 -8 17 -19 28 -27 30 -145 252 -195 366 -15 36 -32 74
-37 85 -4 11 -10 29 -11 40 -3 19 4 19 175 20 197 1 197 0 197 66 0 70 -6 72
-198 72 -94 0 -176 3 -182 7 -20 12 -2 44 39 69 49 30 98 94 112 144 13 49 4
142 -16 174 -9 12 -13 23 -10 23 3 0 -11 18 -31 40 -70 76 -168 106 -264 80z
m126 -133 c31 -11 67 -66 70 -106 3 -51 -31 -107 -75 -124 -120 -48 -225 81
-154 189 27 43 99 61 159 41z m-151 -1279 l0 -403 22 0 c12 0 24 -3 28 -6 5
-6 112 -2 131 5 9 3 12 114 12 398 0 216 1 397 1 403 1 5 17 -22 37 -60 20
-39 40 -71 45 -73 5 -2 9 -8 9 -12 0 -11 111 -188 160 -255 20 -27 53 -85 75
-128 33 -67 39 -89 41 -155 3 -82 -16 -159 -56 -224 -26 -43 -130 -148 -146
-148 -7 0 -19 -6 -27 -14 -26 -27 -148 -58 -227 -57 -151 0 -247 38 -349 139
-39 38 -71 77 -71 86 0 9 -4 16 -8 16 -13 0 -42 98 -48 161 -8 77 28 198 74
252 8 9 11 17 6 17 -5 0 -4 4 1 8 10 7 117 167 165 247 14 22 28 45 33 50 13
16 56 97 68 128 6 15 14 27 17 27 4 0 7 -181 7 -402z"/>
<path d="M1879 1425 c-1 -5 -1 -22 -1 -37 -1 -16 -5 -28 -10 -28 -5 0 -7 -4
-3 -10 3 -5 2 -17 -3 -27 -6 -10 -16 -31 -23 -46 -28 -60 -127 -134 -214 -159
-73 -21 -209 -13 -242 14 -7 6 -13 7 -13 4 0 -4 -13 2 -29 13 -16 12 -32 21
-36 21 -3 0 -26 18 -50 41 -46 43 -80 103 -88 158 -9 52 -23 56 -33 10 -3 -13
-6 -28 -7 -34 -2 -5 -5 -14 -8 -20 -14 -27 4 -123 34 -185 50 -105 187 -199
296 -203 22 -1 41 -5 41 -8 0 -9 93 1 150 16 8 2 15 4 15 5 0 1 9 3 19 5 76
14 174 98 213 182 32 68 49 161 34 188 -3 6 -7 20 -9 32 -3 25 -31 83 -33 68z"/>
<path d="M1068 334 c-18 -18 -5 -34 35 -44 23 -5 62 -17 87 -26 40 -14 80 -26
130 -38 8 -2 42 -7 75 -10 33 -4 69 -8 80 -10 11 -2 26 1 33 7 8 6 12 6 12 -2
0 -7 3 -10 8 -7 4 2 43 7 87 10 89 7 114 12 230 49 44 14 93 28 108 32 20 4
27 11 25 23 -5 28 -70 22 -182 -15 -182 -62 -350 -64 -524 -8 -115 37 -192 52
-204 39z"/>
<path d="M670 228 c0 -4 -9 -5 -20 -3 -12 2 -21 -3 -25 -16 -9 -28 -4 -31 57
-34 102 -4 181 -17 257 -41 42 -13 135 -42 206 -64 130 -41 149 -45 260 -56
55 -5 183 -8 195 -4 3 0 26 3 52 5 96 7 243 45 403 104 44 16 83 29 88 30 4 1
8 1 10 2 30 9 135 21 197 23 58 1 65 3 65 21 0 31 -37 40 -163 39 -129 -1
-216 -10 -244 -25 -10 -5 -18 -8 -18 -5 0 3 -23 -2 -52 -10 -28 -9 -59 -18
-67 -20 -9 -2 -34 -8 -56 -14 -22 -6 -53 -13 -70 -16 -16 -3 -49 -9 -73 -14
-23 -4 -95 -6 -160 -5 -132 3 -175 9 -272 35 -25 7 -52 14 -60 15 -8 2 -16 4
-17 5 -2 2 -7 4 -13 5 -5 1 -11 3 -12 5 -4 2 -25 7 -63 15 -16 3 -38 8 -49 11
-49 15 -356 25 -356 12z"/>
</g>
</svg>
